<svg xmlns="http://www.w3.org/2000/svg" viewBox="0 0 1689 622" width="1689" height="622" style="font-family:Virgil,'Segoe UI',system-ui,-apple-system,sans-serif;">
<defs><marker id="ah" markerWidth="10" markerHeight="7" refX="9" refY="3.5" orient="auto"><polygon points="0 0,10 3.5,0 7" fill="#555"/></marker><filter id="shadow" x="-5%" y="-5%" width="115%" height="115%"><feDropShadow dx="0" dy="1" stdDeviation="2" flood-color="#00000018"/></filter></defs>
<rect width="1689" height="622" fill="#f8f9fa" rx="4"/>
<rect x="637" y="177" width="590" height="280" rx="10"  fill="#d0bfff" fill-opacity="0.22" stroke="#9775fa" stroke-width="1.5"/>
<rect x="222" y="177" width="405" height="280" rx="10"  fill="#b2f2bb" fill-opacity="0.22" stroke="#69db7c" stroke-width="1.5"/>
<rect x="1447" y="157" width="210" height="308" rx="10"  fill="#ffd8a8" fill-opacity="0.22" stroke="#ffa94d" stroke-width="1.5"/>
<rect x="1237" y="177" width="200" height="280" rx="10"  fill="#c3fae8" fill-opacity="0.22" stroke="#38d9a9" stroke-width="1.5"/>
<rect x="32" y="177" width="180" height="280" rx="10"  fill="#a5d8ff" fill-opacity="0.22" stroke="#74c0fc" stroke-width="1.5"/>
<rect x="637" y="470" width="200" height="120" rx="10"  fill="#c3fae8" fill-opacity="0.22" stroke="#38d9a9" stroke-width="1.5"/>
<rect x="657" y="214" width="160" height="72" rx="10" filter="url(#shadow)" fill="#d0bfff" fill-opacity="1" stroke="#7950f2" stroke-width="2"/>
<rect x="1257" y="214" width="158" height="72" rx="10" filter="url(#shadow)" fill="#c3fae8" fill-opacity="1" stroke="#0ca678" stroke-width="2"/>
<rect x="247" y="210" width="155" height="72" rx="10" filter="url(#shadow)" fill="#b2f2bb" fill-opacity="1" stroke="#40c057" stroke-width="2"/>
<rect x="247" y="322" width="155" height="72" rx="10" filter="url(#shadow)" fill="#b2f2bb" fill-opacity="1" stroke="#40c057" stroke-width="2"/>
<ellipse cx="112" cy="271" rx="60" ry="34" fill="#a5d8ff" fill-opacity="1" stroke="#339af0" stroke-width="2"/>
<ellipse cx="1548" cy="210" rx="84" ry="26" fill="#ffd8a8" fill-opacity="1" stroke="#e8590c" stroke-width="2"/>
<ellipse cx="1548" cy="286" rx="84" ry="26" fill="#ffd8a8" fill-opacity="1" stroke="#e8590c" stroke-width="2"/>
<ellipse cx="1548" cy="362" rx="84" ry="26" fill="#ffd8a8" fill-opacity="1" stroke="#e8590c" stroke-width="2"/>
<ellipse cx="736" cy="524" rx="79" ry="34" fill="#c3fae8" fill-opacity="1" stroke="#0ca678" stroke-width="2"/>
<polygon points="928,212 993,248 928,284 863,248" fill="#d0bfff" fill-opacity="1" stroke="#9775fa" stroke-width="2"/>
<polygon points="1095,212 1165,248 1095,284 1025,248" fill="#ffd8a8" fill-opacity="1" stroke="#ffa94d" stroke-width="2"/>
<text text-anchor="middle" fill="#1e1e2e" font-size="24" font-weight="700" font-family="inherit">
  <tspan x="1087" y="53.6">Aether Flow — Data Flow</tspan>
</text>
<text text-anchor="middle" fill="#1971c2" font-size="12" font-weight="400" font-family="inherit">
  <tspan x="122" y="194.8">Browser</tspan>
</text>
<text text-anchor="middle" fill="#2f9e44" font-size="12" font-weight="400" font-family="inherit">
  <tspan x="424.5" y="194.8">Next.js 16 App Router</tspan>
</text>
<text text-anchor="middle" fill="#7048e8" font-size="12" font-weight="400" font-family="inherit">
  <tspan x="932" y="194.8">API Layer — tRPC v11</tspan>
</text>
<text text-anchor="middle" fill="#0ca678" font-size="12" font-weight="400" font-family="inherit">
  <tspan x="1337" y="194.8">Background Jobs</tspan>
</text>
<text text-anchor="middle" fill="#e8590c" font-size="12" font-weight="400" font-family="inherit">
  <tspan x="1552" y="174.8">AI Providers</tspan>
</text>
<text text-anchor="middle" fill="#0ca678" font-size="12" font-weight="400" font-family="inherit">
  <tspan x="737" y="487.8">Data Store</tspan>
</text>
<text text-anchor="middle" fill="#1971c2" font-size="14" font-weight="600" font-family="inherit">
  <tspan x="112" y="276.6">Browser</tspan>
</text>
<text text-anchor="middle" fill="#2f9e44" font-size="14" font-weight="600" font-family="inherit">
  <tspan x="324.5" y="235.6">RSC Pages</tspan>
</text>
<text text-anchor="middle" fill="#2f9e44" font-size="11" font-weight="400" font-family="inherit">
  <tspan x="324.5" y="254.9">Server Components</tspan>
</text>
<text text-anchor="middle" fill="#2f9e44" font-size="14" font-weight="600" font-family="inherit">
  <tspan x="324.5" y="347.6">tRPC Client</tspan>
</text>
<text text-anchor="middle" fill="#2f9e44" font-size="11" font-weight="400" font-family="inherit">
  <tspan x="324.5" y="366.9">React Query v5</tspan>
</text>
<text text-anchor="middle" fill="#7048e8" font-size="14" font-weight="600" font-family="inherit">
  <tspan x="737" y="239.6">tRPC Handler</tspan>
</text>
<text text-anchor="middle" fill="#7048e8" font-size="11" font-weight="400" font-family="inherit">
  <tspan x="737" y="258.9">/api/trpc/[trpc]</tspan>
</text>
<text text-anchor="middle" fill="#7048e8" font-size="13" font-weight="400" font-family="inherit">
  <tspan x="928" y="242.7">Auth Gate</tspan>
</text>
<text text-anchor="middle" fill="#7048e8" font-size="10" font-weight="400" font-family="inherit">
  <tspan x="928" y="258">better-auth session</tspan>
</text>
<text text-anchor="middle" fill="#e8590c" font-size="13" font-weight="400" font-family="inherit">
  <tspan x="1095" y="242.7">Premium Gate</tspan>
</text>
<text text-anchor="middle" fill="#e8590c" font-size="10" font-weight="400" font-family="inherit">
  <tspan x="1095" y="258">Polar.sh subscription</tspan>
</text>
<text text-anchor="middle" fill="#0ca678" font-size="14" font-weight="600" font-family="inherit">
  <tspan x="1336" y="239.6">Inngest</tspan>
</text>
<text text-anchor="middle" fill="#0ca678" font-size="11" font-weight="400" font-family="inherit">
  <tspan x="1336" y="258.9">Durable Job Queue</tspan>
</text>
<text text-anchor="middle" fill="#c92a2a" font-size="12" font-weight="400" font-family="inherit">
  <tspan x="1548" y="212.8">Anthropic Claude</tspan>
</text>
<text text-anchor="middle" fill="#c92a2a" font-size="12" font-weight="400" font-family="inherit">
  <tspan x="1548" y="288.8">OpenAI GPT</tspan>
</text>
<text text-anchor="middle" fill="#c92a2a" font-size="12" font-weight="400" font-family="inherit">
  <tspan x="1548" y="364.8">Google Gemini</tspan>
</text>
<text text-anchor="middle" fill="#e8590c" font-size="10" font-weight="400" font-family="inherit">
  <tspan x="1553" y="413">via Vercel AI SDK</tspan>
</text>
<text text-anchor="middle" fill="#0ca678" font-size="12" font-weight="400" font-family="inherit">
  <tspan x="736" y="521.8">PostgreSQL</tspan>
  <tspan x="736" dy="16.8">Prisma ORM</tspan>
</text>
<text text-anchor="middle" fill="#555" font-size="10" font-weight="400" font-family="inherit">
  <tspan x="211.5" y="261">navigate</tspan>
</text>
<text text-anchor="middle" fill="#555" font-size="10" font-weight="400" font-family="inherit">
  <tspan x="211.5" y="321">mutations</tspan>
</text>
<text text-anchor="middle" fill="#7048e8" font-size="10" font-weight="400" font-family="inherit">
  <tspan x="529.5" y="291">HTTP POST /api/trpc</tspan>
</text>
<text text-anchor="middle" fill="#0ca678" font-size="10" font-weight="400" font-family="inherit">
  <tspan x="1211" y="239">execute/ai</tspan>
</text>
<text text-anchor="middle" fill="#0ca678" font-size="9" font-weight="400" font-family="inherit">
  <tspan x="280" y="442.1">Prisma.findMany</tspan>
</text>
<text text-anchor="middle" fill="#0ca678" font-size="9" font-weight="400" font-family="inherit">
  <tspan x="800" y="372.1">getWorkflows</tspan>
</text>
<text text-anchor="middle" fill="#fa5252" font-size="9" font-weight="400" font-family="inherit">
  <tspan x="928" y="306.1">401 UNAUTHORIZED</tspan>
  <tspan x="928" dy="12.6">no active session</tspan>
</text>
<text text-anchor="middle" fill="#fa5252" font-size="9" font-weight="400" font-family="inherit">
  <tspan x="1095" y="306.1">403 FORBIDDEN</tspan>
  <tspan x="1095" dy="12.6">no subscription</tspan>
</text>
<polyline points="172,271 247,246" fill="none" stroke="#339af0" stroke-width="2" marker-end="url(#ah)"/>
<polyline points="172,271 247,358" fill="none" stroke="#339af0" stroke-width="2" marker-end="url(#ah)"/>
<polyline points="402,358 529,358 529,250 657,250" fill="none" stroke="#7048e8" stroke-width="2" marker-end="url(#ah)"/>
<polyline points="817,250 863,248" fill="none" stroke="#9775fa" stroke-width="2" marker-end="url(#ah)"/>
<polyline points="993,248 1025,248" fill="none" stroke="#9775fa" stroke-width="2" marker-end="url(#ah)"/>
<polyline points="1165,248 1257,250" fill="none" stroke="#0ca678" stroke-width="2" marker-end="url(#ah)"/>
<polyline points="1415,250 1439,250 1439,210 1464,210" fill="none" stroke="#e8590c" stroke-width="2" marker-end="url(#ah)"/>
<polyline points="1415,250 1439,250 1439,286 1464,286" fill="none" stroke="#e8590c" stroke-width="2" marker-end="url(#ah)"/>
<polyline points="1415,250 1439,250 1439,362 1464,362" fill="none" stroke="#e8590c" stroke-width="2" marker-end="url(#ah)"/>
<polyline points="324,282 324,319 240,319 240,524 657,524" fill="none" stroke="#0ca678" stroke-width="2" marker-end="url(#ah)"/>
<polyline points="737,286 737,490" fill="none" stroke="#0ca678" stroke-width="2" marker-end="url(#ah)"/>
</svg>